<?xml version="1.0" standalone="no"?>
<!DOCTYPE svg PUBLIC "-//W3C//DTD SVG 20010904//EN"
 "http://www.w3.org/TR/2001/REC-SVG-20010904/DTD/svg10.dtd">
<svg version="1.0" xmlns="http://www.w3.org/2000/svg"
 width="1304.000000pt" height="2082.000000pt" viewBox="0 0 1304.000000 2082.000000"
 preserveAspectRatio="xMidYMid meet">

<g transform="translate(0.000000,2082.000000) scale(0.100000,-0.100000)"
fill="#000000" stroke="none">
<path d="M1341 20796 c-6 -7 -30 -16 -52 -19 -49 -6 -59 -15 -38 -30 9 -7 19
-26 23 -43 4 -19 16 -36 30 -42 13 -6 26 -23 30 -37 8 -33 29 -55 51 -55 8 0
18 -8 21 -17 3 -10 11 -31 19 -48 8 -16 25 -55 39 -86 14 -31 26 -63 26 -72 0
-9 5 -19 10 -22 6 -3 10 -13 10 -22 0 -21 71 -131 88 -138 28 -10 60 26 86 98
14 40 26 79 26 88 0 9 -37 53 -83 98 -77 76 -84 87 -95 140 -7 31 -12 80 -12
108 0 28 -3 65 -6 82 l-6 31 -78 0 c-53 0 -81 -4 -89 -14z"/>
<path d="M1710 20804 c0 -5 87 -149 117 -193 1 -2 8 1 16 7 8 7 13 38 15 81 2
60 -1 72 -17 80 -17 10 -131 31 -131 25z"/>
<path d="M2030 20605 c-5 -14 -10 -32 -10 -40 0 -28 -13 -45 -34 -45 -29 0
-40 9 -60 48 -12 23 -23 32 -41 32 -24 0 -25 -2 -25 -74 0 -41 -3 -81 -6 -90
-4 -10 5 -27 23 -45 16 -16 37 -41 47 -56 15 -22 22 -25 49 -20 19 4 46 21 65
43 l33 36 32 -19 c45 -27 64 -53 77 -106 8 -32 24 -58 51 -85 22 -22 51 -58
65 -81 24 -41 96 -87 117 -75 12 6 -1 54 -22 77 -10 11 -21 27 -25 35 -4 8
-18 33 -31 55 -14 22 -31 54 -39 71 -8 17 -22 36 -30 44 -9 7 -16 18 -16 25 0
7 -9 23 -19 37 -11 13 -23 36 -26 50 -6 25 -116 170 -149 197 -13 11 -17 9
-26 -14z"/>
<path d="M49 20088 c-47 -158 -52 -327 -11 -403 46 -88 63 -129 69 -171 3 -24
9 -44 14 -44 4 0 13 -19 20 -42 6 -24 30 -87 52 -140 48 -117 70 -129 66 -38
-2 45 2 64 14 78 15 17 16 26 6 73 -6 30 -31 95 -55 144 -42 87 -43 94 -49
215 -3 69 -10 141 -15 160 -25 100 -72 240 -80 240 -5 0 -19 -32 -31 -72z"/>
<path d="M2439 20015 c-3 -5 -2 -29 3 -51 7 -32 24 -58 75 -109 48 -49 64 -61
60 -44 -4 13 -7 27 -7 32 0 4 -7 7 -15 7 -8 0 -15 9 -15 20 0 11 -6 23 -14 26
-8 3 -20 19 -26 35 -7 16 -21 34 -31 39 -10 6 -19 20 -21 32 -2 13 -6 19 -9
13z"/>
<path d="M2603 19743 c6 -16 22 -37 33 -48 12 -11 30 -39 40 -62 11 -23 51
-75 90 -116 40 -41 77 -84 84 -97 8 -16 15 -19 22 -12 8 8 7 17 -3 31 -96 133
-207 282 -228 303 -35 37 -55 37 -38 1z"/>
<path d="M2896 19375 c4 -8 8 -15 10 -15 2 0 4 7 4 15 0 8 -4 15 -10 15 -5 0
-7 -7 -4 -15z"/>
<path d="M2950 19272 c0 -4 14 -22 30 -41 17 -18 42 -54 56 -79 14 -26 39 -70
57 -99 18 -28 46 -76 64 -105 17 -29 44 -65 59 -78 14 -14 39 -50 54 -80 15
-30 51 -93 80 -140 29 -47 64 -105 77 -130 27 -53 93 -155 144 -225 20 -28 47
-69 60 -92 13 -23 71 -124 128 -225 58 -101 129 -219 159 -262 29 -44 70 -109
90 -144 20 -35 49 -85 65 -111 15 -25 38 -68 51 -96 13 -27 38 -74 55 -104 43
-73 111 -233 111 -262 0 -12 -11 -34 -25 -49 -17 -18 -23 -32 -19 -48 6 -21
26 -30 109 -47 44 -9 211 -183 259 -270 22 -39 51 -86 65 -105 33 -44 45 -63
76 -123 27 -50 47 -78 80 -109 65 -61 73 -74 79 -111 4 -24 20 -56 39 -78 50
-59 77 -96 77 -106 0 -5 14 -30 30 -55 20 -31 31 -61 34 -94 6 -80 62 -198
120 -253 32 -31 36 -40 36 -87 0 -34 5 -56 15 -64 8 -7 15 -21 15 -31 0 -10 9
-33 20 -51 11 -18 20 -42 20 -52 0 -10 13 -46 29 -80 16 -34 32 -76 35 -93 4
-18 12 -35 17 -38 5 -4 9 -16 9 -29 0 -12 4 -26 8 -31 5 -6 23 -45 42 -87 18
-43 39 -83 47 -89 13 -11 63 -108 63 -122 0 -3 16 -29 35 -58 19 -30 35 -58
35 -63 0 -5 15 -27 33 -50 30 -37 96 -162 97 -183 1 -4 37 -44 80 -88 56 -56
78 -85 74 -97 -7 -24 12 -57 57 -96 21 -18 58 -63 83 -100 25 -37 64 -87 86
-112 49 -53 90 -111 123 -171 48 -88 62 -109 77 -114 9 -3 24 -19 34 -35 18
-32 90 -92 144 -122 21 -11 34 -28 41 -55 13 -47 37 -83 57 -83 8 0 14 -4 14
-9 0 -5 10 -13 23 -16 12 -4 38 -22 57 -40 26 -25 47 -35 85 -40 101 -12 115
-16 140 -39 14 -13 25 -31 25 -40 0 -19 13 -20 42 -5 17 9 23 8 30 -5 5 -9 13
-16 19 -16 18 0 59 -49 65 -78 5 -24 10 -28 30 -24 13 2 24 0 24 -6 0 -6 21
-9 48 -9 34 2 54 -3 65 -15 10 -9 26 -20 37 -23 11 -3 20 -13 20 -21 0 -9 10
-14 28 -14 25 0 102 -55 102 -73 0 -11 79 -87 90 -87 6 0 10 -4 10 -8 0 -5 17
-27 38 -49 50 -54 62 -70 62 -81 0 -6 18 -25 41 -43 79 -66 169 -161 169 -178
0 -4 11 -14 25 -21 14 -8 41 -32 59 -54 18 -23 64 -73 102 -113 51 -54 75 -88
93 -135 14 -35 30 -69 37 -75 7 -7 20 -34 30 -60 9 -27 27 -58 38 -71 33 -37
21 -172 -19 -207 -7 -5 -24 -31 -38 -56 -31 -55 -27 -59 56 -59 58 0 88 -15
155 -79 24 -22 47 -41 52 -41 5 0 11 -8 15 -19 3 -10 27 -30 53 -44 70 -39
119 -89 131 -135 10 -34 79 -165 133 -250 9 -15 24 -47 32 -72 9 -25 50 -110
91 -189 41 -80 75 -148 75 -153 0 -4 18 -43 40 -87 22 -43 40 -83 40 -88 0 -4
13 -33 29 -63 16 -30 32 -66 36 -80 4 -14 27 -56 51 -93 24 -37 44 -70 44 -73
0 -3 26 -44 59 -92 32 -48 66 -103 76 -122 10 -19 21 -37 25 -40 5 -3 23 -32
41 -65 18 -33 47 -80 65 -105 17 -25 35 -56 39 -69 9 -30 97 -180 140 -241 18
-25 41 -70 50 -100 44 -135 91 -209 143 -225 12 -3 22 -12 22 -18 0 -25 87
-186 130 -239 55 -70 115 -171 136 -235 9 -26 25 -59 35 -72 11 -13 28 -54 39
-90 14 -43 33 -78 55 -101 24 -25 43 -62 64 -125 16 -49 37 -105 46 -122 30
-60 7 -94 -104 -154 -42 -23 -89 -52 -106 -64 -41 -30 -138 -80 -205 -105 -58
-21 -85 -37 -145 -84 -41 -33 -127 -55 -212 -56 -52 0 -53 -1 -74 -43 -48 -95
-46 -93 -239 -179 -25 -11 -68 -42 -97 -68 -38 -35 -66 -51 -104 -60 -28 -7
-65 -25 -83 -39 -17 -15 -49 -37 -71 -50 -45 -26 -110 -72 -161 -115 -39 -32
-44 -64 -13 -92 27 -24 45 -60 53 -106 11 -60 48 -96 107 -104 27 -4 52 -11
55 -15 3 -5 17 -9 32 -9 24 0 25 1 7 14 -16 11 -19 26 -17 95 1 45 6 90 12
101 31 58 126 17 173 -75 21 -40 177 -199 252 -255 44 -34 63 -56 73 -85 13
-38 12 -41 -13 -62 -15 -14 -39 -23 -58 -23 -18 0 -47 -9 -66 -21 -33 -20 -33
-22 -29 -75 7 -82 17 -88 157 -94 98 -4 123 -9 140 -24 44 -40 17 -112 -49
-131 -34 -10 -56 -31 -70 -65 -10 -24 -9 -44 4 -104 19 -82 27 -91 110 -119
75 -26 135 -64 142 -92 8 -34 -3 -93 -26 -131 -10 -17 -25 -56 -34 -87 -16
-56 -36 -78 -135 -150 -54 -39 -79 -72 -87 -114 -6 -28 -2 -37 29 -68 19 -19
45 -35 57 -35 57 0 102 -68 80 -121 -14 -33 -81 -62 -169 -73 -87 -11 -119
-29 -141 -78 -23 -53 -55 -84 -95 -93 -16 -4 -37 -9 -46 -11 -9 -3 -28 -22
-42 -43 -14 -21 -47 -58 -72 -82 -53 -50 -69 -77 -79 -134 -9 -51 -54 -165
-74 -187 -8 -10 -29 -18 -48 -18 -38 0 -56 20 -80 92 -18 54 -54 88 -93 88
-14 -1 -51 -9 -81 -20 -30 -11 -68 -19 -83 -20 -16 0 -69 -10 -119 -22 -91
-21 -92 -21 -219 -3 -145 20 -178 14 -205 -36 -36 -71 -78 -83 -154 -46 l-45
22 -5 81 c-6 84 -19 114 -50 114 -20 0 -62 -45 -85 -91 -10 -19 -28 -32 -54
-40 -35 -10 -44 -9 -83 12 -59 33 -78 74 -78 172 0 83 -17 117 -59 117 -39 0
-181 51 -201 72 -15 16 -20 36 -20 73 0 46 4 55 38 88 34 33 43 37 89 37 59 0
68 8 47 38 -10 15 -26 22 -49 22 -19 0 -61 14 -93 30 -33 16 -64 30 -70 30
-19 0 -52 52 -52 81 0 33 36 78 84 104 43 23 64 59 50 83 -6 9 -39 27 -74 39
-35 12 -79 37 -99 56 -20 18 -53 46 -74 61 -48 35 -66 70 -71 143 -3 32 -14
80 -26 106 -25 57 -21 66 51 103 26 13 57 37 69 55 20 27 27 30 59 27 20 -3
42 -7 50 -9 10 -3 18 11 27 46 7 28 21 71 31 98 23 61 12 81 -46 85 -68 5
-344 -92 -501 -176 -47 -25 -101 -54 -121 -64 -20 -10 -66 -21 -102 -25 -75
-7 -97 3 -97 46 0 17 -14 41 -41 69 -69 71 -86 52 -48 -54 25 -72 25 -108 -2
-145 -26 -37 -61 -55 -125 -63 -107 -13 -156 36 -167 168 -10 121 -57 177
-123 147 -31 -14 -31 -50 0 -80 34 -32 38 -57 11 -69 -45 -21 -105 5 -160 67
-27 31 -45 24 -85 -30 -35 -48 -38 -90 -12 -134 l19 -30 111 0 c97 0 114 -3
139 -21 41 -31 49 -114 16 -169 -10 -18 -21 -20 -100 -19 -113 2 -220 27 -253
59 -16 15 -46 29 -78 35 -28 5 -73 21 -99 35 -26 14 -52 25 -56 25 -9 0 381
-774 489 -973 33 -59 66 -121 74 -138 188 -392 192 -399 256 -399 25 0 55 7
68 15 21 14 28 14 67 0 74 -27 78 -28 119 -11 49 19 113 21 128 3 24 -29 -17
-100 -65 -112 -15 -3 -41 1 -66 14 -33 15 -63 19 -135 18 -87 0 -95 -2 -104
-22 -14 -31 37 -127 106 -201 32 -34 63 -78 72 -104 44 -121 67 -175 96 -223
40 -68 88 -170 88 -188 0 -8 15 -43 33 -79 19 -36 54 -105 79 -155 25 -49 68
-137 96 -195 27 -58 99 -190 159 -295 144 -251 136 -238 150 -256 7 -8 23 -35
36 -60 103 -195 157 -303 177 -354 13 -33 29 -69 37 -80 7 -11 13 -25 13 -32
0 -11 25 -64 90 -193 10 -20 35 -53 54 -75 20 -22 36 -49 36 -63 0 -41 25 -18
28 26 2 28 8 42 17 42 8 0 24 11 37 23 28 29 116 67 154 67 38 0 107 35 179
90 59 45 105 70 155 85 32 10 112 49 220 107 47 25 123 58 170 72 167 52 246
80 313 112 37 18 84 38 105 45 51 16 200 91 255 128 25 17 68 36 97 41 75 14
128 40 190 95 66 57 91 68 195 90 60 12 95 27 145 59 36 24 90 53 120 65 91
37 197 91 235 121 19 15 80 42 136 60 68 22 121 47 162 76 61 44 156 94 176
94 22 0 119 49 172 86 30 21 103 60 163 87 113 50 147 69 181 98 11 9 47 31
80 49 33 18 67 38 76 46 14 13 65 41 164 92 41 21 123 80 166 121 50 46 137
81 228 91 42 4 83 11 92 14 16 7 81 85 152 183 64 87 133 134 212 143 49 5 50
6 47 35 -2 17 -10 37 -18 46 -8 8 -14 20 -14 26 0 6 -9 22 -20 36 -21 26 -46
104 -59 182 -9 48 -22 74 -70 140 -34 46 -67 110 -183 355 -22 47 -57 119 -78
160 -21 41 -50 113 -65 160 -27 85 -53 137 -86 175 -33 38 -68 120 -83 192
-11 51 -26 87 -52 123 -20 27 -39 50 -42 50 -4 0 -17 15 -29 33 -23 33 -47
107 -82 253 -11 45 -40 126 -65 180 -25 55 -51 126 -59 159 -8 33 -50 134 -95
225 -44 91 -97 201 -117 245 -82 176 -135 283 -167 340 -19 33 -55 107 -81
165 -67 150 -90 193 -130 242 -49 62 -58 82 -68 162 -11 92 -41 170 -88 232
-43 57 -85 142 -96 194 -4 19 -13 42 -20 50 -19 23 -43 76 -50 112 -7 35 -60
134 -74 140 -12 5 -71 135 -71 157 0 11 -4 22 -9 26 -5 3 -15 22 -22 43 -6 20
-24 55 -38 77 -15 22 -48 85 -75 140 -59 124 -77 159 -131 261 -23 44 -46 94
-49 110 -8 35 -40 100 -81 164 -32 50 -85 156 -85 172 0 15 -51 119 -80 163
-14 22 -40 69 -57 105 -17 36 -47 100 -68 142 -20 42 -58 114 -86 160 -27 46
-49 90 -49 99 0 9 -7 22 -15 29 -8 7 -15 18 -15 24 0 6 -7 25 -16 41 -39 74
-113 223 -127 255 -43 101 -84 185 -162 332 -48 90 -90 165 -94 168 -4 3 -31
52 -60 110 -157 307 -551 914 -769 1185 -204 254 -461 500 -798 763 -47 36
-54 38 -54 18 0 -31 -23 -27 -62 10 -90 87 -141 140 -157 166 -10 15 -135 115
-279 223 -504 376 -728 597 -967 960 -134 203 -228 392 -436 881 -127 298
-303 664 -404 839 -31 55 -72 128 -91 161 -18 34 -46 83 -63 110 -16 27 -44
74 -61 104 -18 30 -47 78 -65 105 -18 28 -71 119 -119 203 -76 135 -220 374
-311 517 -17 28 -98 156 -180 285 -239 378 -612 938 -667 1000 -12 14 -79 110
-103 149 -5 9 -18 22 -27 29 -10 7 -18 20 -18 28 0 8 -6 17 -14 20 -8 3 -19
18 -26 34 -7 16 -18 31 -26 34 -8 3 -14 11 -14 17 0 7 -20 36 -45 65 -25 28
-45 57 -45 63 0 6 -9 15 -20 21 -11 6 -20 17 -20 26 0 8 -7 17 -16 21 -8 3
-20 16 -25 29 -8 22 -49 35 -49 16z m7420 -11757 c0 -2 -7 -23 -16 -45 -18
-45 -88 -98 -159 -120 -59 -19 -95 -39 -140 -77 -215 -186 -243 -205 -380
-259 -66 -27 -85 -39 -110 -74 -33 -48 -85 -80 -127 -80 -34 0 -68 48 -68 95
0 60 29 87 164 155 69 35 150 83 179 108 28 25 68 55 87 67 44 27 171 72 230
81 47 7 101 36 164 90 21 18 57 40 80 48 40 14 96 21 96 11z m476 -1214 c34
-20 49 -63 33 -93 -14 -26 -74 -33 -179 -20 -52 7 -106 12 -120 12 -44 0 -134
-67 -169 -126 -43 -70 -75 -81 -145 -47 -44 20 -61 60 -60 135 2 118 44 140
253 138 178 -3 188 -2 226 9 53 16 128 12 161 -8z m-4497 -814 c29 -14 39 -46
33 -105 -8 -81 -85 -102 -207 -58 -80 29 -107 51 -103 85 4 33 71 79 123 84
85 8 131 6 154 -6z m-414 -153 l24 -25 -21 -35 c-11 -19 -31 -43 -44 -53 -54
-43 -157 -34 -191 17 -47 68 17 118 155 121 45 1 57 -3 77 -25z m4914 -690
c39 -49 23 -109 -43 -173 -63 -61 -141 -38 -126 37 26 136 114 206 169 136z
m-3804 10 c8 -4 22 -19 31 -35 13 -25 13 -33 0 -63 -18 -43 -42 -56 -105 -56
-65 0 -91 23 -91 80 0 58 26 80 94 80 30 0 62 -3 71 -6z m2455 -67 c0 -19 -13
-34 -37 -41 -20 -6 -23 -4 -23 19 0 17 7 28 23 34 25 10 37 6 37 -12z m1065
-126 c38 -22 44 -66 17 -130 -11 -25 -23 -68 -27 -96 -4 -32 -19 -68 -42 -102
-44 -65 -70 -87 -151 -130 -95 -51 -112 -63 -138 -105 -33 -51 -62 -68 -131
-75 -32 -2 -86 -14 -119 -24 -51 -16 -64 -25 -74 -50 -28 -66 -143 -105 -183
-61 -45 49 -40 115 10 145 17 10 66 22 108 26 47 6 83 15 95 26 20 18 79 197
105 316 22 106 39 120 153 129 94 8 147 28 156 58 10 29 60 72 102 87 43 15
73 11 119 -14z m-730 -52 c4 -5 4 -21 1 -35 -8 -31 -55 -33 -81 -4 -18 20 -18
21 1 35 22 17 70 20 79 4z m-3112 -85 c91 -23 117 -39 117 -72 0 -59 -31 -72
-173 -72 -127 0 -143 7 -131 57 8 36 40 72 79 89 38 17 36 17 108 -2z m3145
-160 c19 -13 22 -24 22 -77 0 -79 -17 -107 -66 -107 -41 0 -89 22 -98 45 -36
96 64 194 142 139z m-573 -44 c4 -6 4 -24 0 -40 -6 -27 -10 -30 -46 -30 -31 0
-39 4 -39 18 0 41 67 82 85 52z m239 -135 c8 -9 18 -32 21 -53 4 -20 11 -58
16 -84 23 -103 -25 -207 -124 -269 -41 -26 -42 -26 -52 -5 -6 11 -26 24 -47
29 -48 11 -100 -13 -134 -62 -13 -20 -48 -52 -76 -71 -31 -21 -63 -53 -78 -80
-20 -35 -40 -52 -85 -75 -61 -31 -77 -51 -88 -112 -8 -39 -10 -38 153 -50
l115 -8 3 -36 c2 -22 -5 -55 -18 -82 -18 -37 -30 -49 -72 -67 -98 -42 -155
-10 -192 106 -20 63 -25 71 -65 90 -23 11 -66 47 -95 80 -51 56 -56 59 -99 59
-65 0 -82 -20 -81 -93 1 -74 49 -284 69 -298 8 -6 15 -18 15 -27 0 -25 -41 -3
-62 33 -11 19 -29 32 -55 39 -54 15 -112 68 -148 134 -16 31 -40 61 -53 66
-12 6 -75 13 -140 16 -230 11 -303 45 -239 109 36 36 103 54 235 65 115 8 126
11 153 37 58 56 47 94 -32 112 -71 17 -118 53 -112 86 6 31 64 77 127 100 26
10 63 31 80 47 22 19 39 26 53 23 14 -4 41 8 79 33 33 22 84 52 116 67 31 16
77 45 101 66 65 53 120 66 190 46 33 -10 63 -25 72 -39 15 -21 14 -24 -23 -57
-21 -19 -55 -48 -75 -63 -21 -15 -43 -42 -51 -60 -13 -31 -78 -97 -95 -97 -5
0 -12 7 -15 15 -3 9 -19 22 -36 29 -27 11 -42 9 -118 -12 -48 -13 -103 -26
-122 -29 -19 -3 -41 -10 -47 -15 -18 -15 -16 -69 3 -97 16 -22 21 -23 129 -20
103 4 115 6 151 32 49 33 50 33 77 3 24 -28 31 -29 133 -27 104 2 116 14 120
122 3 114 28 187 73 213 33 19 37 19 114 3 95 -19 128 -9 146 46 11 34 53 80
81 90 31 11 89 7 104 -8z m-1504 -56 c0 -8 -11 -22 -25 -29 -22 -12 -27 -11
-45 5 -26 24 -25 32 7 49 31 16 63 3 63 -25z m-30 -184 c13 -35 3 -55 -30 -55
-39 0 -56 23 -42 55 16 34 59 34 72 0z m2175 -257 c24 -18 27 -26 22 -61 -6
-47 -38 -84 -85 -96 -43 -12 -58 -6 -70 28 -10 28 -3 96 12 120 21 34 84 39
121 9z m-297 -10 c21 -27 24 -61 7 -103 -13 -34 -24 -46 -54 -59 -22 -8 -57
-14 -79 -13 -50 2 -92 -25 -92 -58 0 -32 -38 -45 -57 -19 -28 38 -16 69 63
160 42 49 83 92 92 96 29 12 109 9 120 -4z m-532 -55 c-4 -8 -9 -40 -12 -71
-7 -57 -25 -105 -44 -117 -17 -11 -59 22 -55 42 2 10 7 35 10 56 7 45 68 119
91 110 8 -3 13 -12 10 -20z m1355 -5 c23 -43 8 -71 -60 -106 -35 -19 -72 -42
-82 -51 -28 -26 -107 -63 -119 -56 -20 12 -9 35 48 92 31 33 72 78 89 100 43
54 101 64 124 21z m-3349 -105 c25 -22 23 -45 -6 -72 -18 -17 -32 -22 -50 -17
-44 11 -46 78 -3 96 32 13 38 12 59 -7z m314 -34 c15 -12 14 -15 -6 -31 -28
-22 -78 -23 -109 -2 l-22 16 21 23 c18 19 27 21 60 15 22 -4 47 -13 56 -21z
m1879 -114 c25 -24 29 -42 25 -99 -4 -57 -16 -74 -59 -81 -55 -9 -103 -43
-113 -80 -4 -16 -4 -54 1 -84 8 -50 2 -105 -13 -130 -12 -18 -103 -61 -130
-61 -21 0 -27 -7 -37 -42 -12 -47 -40 -82 -81 -104 -38 -20 -73 -4 -105 50
-15 24 -40 52 -57 61 -17 10 -42 28 -56 40 -14 13 -42 26 -63 29 -28 5 -43 15
-57 39 -35 56 -28 67 41 67 64 0 78 -7 182 -97 35 -31 41 -33 117 -33 93 0 99
5 81 74 -6 24 -14 75 -17 114 -6 61 -4 76 15 114 13 24 40 61 60 83 21 22 46
61 55 88 22 58 51 76 129 77 48 0 62 -4 82 -25z m-1386 -161 c52 -15 53 -16
88 -92 19 -42 38 -84 43 -93 7 -14 2 -18 -28 -23 -63 -10 -90 -7 -194 24 -111
33 -142 36 -217 18 -67 -15 -115 5 -137 58 -25 61 4 76 201 104 156 23 181 23
244 4z m1516 -41 c31 -34 32 -70 2 -105 -28 -33 -60 -43 -76 -24 -19 22 -26
123 -11 141 19 23 57 18 85 -12z"/>
<path d="M400 18956 c0 -45 6 -75 19 -98 10 -18 27 -76 37 -128 13 -74 43
-158 136 -383 128 -310 244 -606 480 -1227 500 -1317 608 -1588 828 -2070 191
-418 331 -695 650 -1290 37 -69 104 -198 150 -287 46 -89 87 -160 92 -157 11
7 10 40 -2 62 -23 41 -43 99 -41 119 1 12 -8 39 -21 60 -33 53 -128 257 -128
274 0 8 -11 32 -24 55 -13 22 -26 53 -30 67 -3 15 -11 27 -16 27 -14 0 -75 99
-90 146 -20 63 -71 178 -81 185 -19 12 -80 116 -90 154 -6 22 -39 99 -74 170
-34 72 -75 168 -90 214 -15 47 -38 102 -51 122 -12 20 -37 75 -54 120 -17 46
-39 102 -49 124 -10 22 -22 52 -25 68 -4 15 -19 49 -35 75 -16 26 -41 83 -56
127 -36 107 -99 230 -146 284 -22 24 -39 48 -39 53 0 5 -16 43 -35 84 -19 41
-35 78 -35 83 0 5 -10 31 -21 58 -12 26 -34 89 -49 138 -16 50 -54 160 -85
245 -32 85 -66 182 -77 215 -22 65 -62 164 -140 345 -62 143 -160 436 -200
595 -33 135 -54 200 -105 330 -20 50 -53 142 -74 205 -58 173 -80 229 -122
303 -21 37 -58 124 -82 194 -42 120 -55 142 -81 143 -12 0 -54 54 -54 70 0 6
-14 43 -30 82 -23 54 -28 74 -19 84 6 8 10 14 8 15 -52 10 -49 13 -49 -55z"/>
<path d="M4125 16863 c-260 -54 -376 -112 -416 -206 -10 -24 -9 -31 4 -44 12
-13 37 -16 127 -14 155 2 163 7 229 125 33 61 62 102 77 108 38 18 23 41 -21
31z"/>
<path d="M8057 11445 c-13 -9 -15 -15 -7 -20 14 -8 34 9 29 23 -3 7 -11 6 -22
-3z"/>
<path d="M7935 11390 c-3 -5 1 -10 9 -10 9 0 16 5 16 10 0 6 -4 10 -9 10 -6 0
-13 -4 -16 -10z"/>
<path d="M7583 11223 c9 -2 23 -2 30 0 6 3 -1 5 -18 5 -16 0 -22 -2 -12 -5z"/>
<path d="M7981 11006 c-54 -18 -85 -36 -115 -65 -57 -56 -117 -80 -196 -81
-36 0 -83 -5 -105 -10 -22 -5 -89 -14 -150 -20 -123 -14 -146 -23 -224 -89
-89 -75 -100 -86 -111 -115 -8 -23 -7 -33 11 -57 11 -16 21 -30 22 -30 1 -1
63 -5 137 -8 l135 -6 1 -95 2 -95 33 -3 c53 -6 108 15 119 44 11 28 13 114 4
138 -4 12 -20 16 -55 16 -45 0 -51 3 -60 27 -13 35 10 88 43 98 17 6 28 1 48
-22 14 -17 59 -58 100 -93 41 -34 81 -72 87 -85 7 -13 14 -52 15 -88 2 -76
-14 -103 -81 -139 -24 -12 -58 -31 -75 -40 -47 -26 -140 -24 -165 3 -19 21
-35 81 -29 110 5 24 -192 39 -263 19 -41 -11 -63 -48 -57 -96 3 -24 11 -31 62
-51 73 -28 91 -45 165 -153 69 -100 91 -168 91 -275 0 -116 -42 -189 -97 -171
-24 8 -208 384 -228 465 -26 107 -33 116 -89 115 -29 0 -51 -6 -56 -14 -16
-25 -22 -154 -11 -236 12 -96 43 -186 80 -234 15 -19 42 -62 59 -95 46 -86
102 -145 139 -145 30 0 69 22 91 52 21 28 75 22 151 -17 37 -19 70 -35 74 -35
4 0 7 9 7 21 0 28 67 171 87 187 24 18 74 15 108 -7 26 -16 133 -119 238 -228
17 -18 66 -50 109 -72 67 -33 84 -38 114 -31 20 5 45 16 56 27 19 17 20 26 15
127 -5 103 -7 111 -34 137 -21 21 -50 33 -118 49 -49 12 -101 27 -115 34 -24
11 -125 134 -155 188 -8 15 -24 32 -35 38 -17 9 -23 5 -46 -29 -39 -60 -115
-79 -163 -42 -21 16 -23 24 -18 66 11 76 26 97 87 122 58 23 94 62 105 115 8
35 23 42 72 33 24 -4 50 -20 73 -44 19 -20 67 -71 106 -112 90 -93 154 -182
193 -263 41 -88 56 -96 166 -96 75 0 97 4 130 23 58 32 210 194 234 248 44 98
36 388 -12 487 -13 26 -48 82 -78 124 -30 42 -65 96 -79 120 -38 66 -327 346
-370 358 -72 21 -104 20 -179 -4z m135 -248 c54 -32 66 -51 115 -178 7 -19 34
-57 60 -85 25 -27 54 -65 63 -83 20 -39 35 -149 36 -258 0 -114 -7 -142 -41
-159 -49 -26 -76 -19 -107 26 -15 22 -46 65 -70 96 -65 82 -108 161 -121 221
-12 56 -49 118 -99 165 -44 40 -82 122 -82 178 0 61 27 96 78 102 97 10 116 7
168 -25z"/>
<path d="M3140 10930 c0 -5 -7 -10 -15 -10 -13 0 -15 -26 -15 -173 0 -114 5
-191 14 -227 7 -30 16 -98 20 -150 3 -52 13 -113 20 -136 8 -22 18 -69 21
-105 22 -201 184 -633 441 -1174 138 -288 1240 -2494 1254 -2509 16 -16 -11
78 -31 111 -38 60 -100 196 -123 267 -13 39 -37 103 -54 141 -101 232 -162
374 -162 380 0 8 -12 35 -99 237 -28 64 -51 122 -51 128 0 7 -31 68 -70 137
-38 69 -75 144 -81 167 -6 22 -35 84 -65 137 -69 123 -264 509 -264 522 0 6
-25 63 -55 128 -131 282 -150 359 -111 440 14 30 26 39 62 49 24 7 47 17 50
22 3 4 20 15 37 24 18 8 50 26 72 39 22 14 55 32 73 40 18 9 31 19 28 24 -3 4
-30 11 -60 14 -59 6 -204 70 -244 107 -12 11 -29 37 -37 57 -8 20 -22 41 -31
48 -14 10 -17 36 -19 151 -1 76 -8 166 -16 198 -10 46 -10 61 -1 64 7 2 12 21
12 42 0 29 -8 46 -32 72 -18 19 -41 38 -50 41 -10 4 -18 13 -18 21 0 8 -10 18
-21 21 -18 6 -20 13 -16 42 5 26 1 39 -14 54 -13 13 -17 27 -13 43 3 14 -1 39
-11 60 -15 30 -21 35 -41 30 -19 -5 -31 1 -54 24 -38 41 -72 109 -65 131 3 10
-6 42 -20 72 -14 30 -25 70 -25 89 0 49 -13 68 -34 51 -9 -8 -16 -22 -16 -32
0 -11 -4 -19 -10 -19 -5 0 -10 8 -10 19 0 10 -7 24 -15 31 -8 7 -15 25 -15 41
0 16 -4 29 -10 29 -5 0 -10 -4 -10 -10z"/>
<path d="M6535 10014 c-63 -34 -135 -85 -154 -110 -11 -14 -41 -39 -66 -56
-57 -38 -85 -73 -85 -107 0 -36 17 -51 59 -51 31 0 104 34 141 66 8 7 27 15
41 19 21 5 31 1 51 -24 14 -16 29 -47 32 -68 11 -59 42 -136 79 -195 36 -57
69 -135 87 -207 14 -55 67 -111 104 -111 14 0 36 10 47 21 20 20 21 29 16 94
-7 75 -38 218 -64 292 -8 23 -34 71 -57 108 -25 37 -46 83 -50 108 -13 77 -48
182 -70 204 -28 30 -74 37 -111 17z"/>
<path d="M5815 9656 c-16 -7 -41 -25 -54 -39 -22 -25 -23 -28 -8 -50 9 -14 30
-27 49 -31 39 -8 53 -18 93 -70 69 -90 134 -210 165 -306 31 -97 31 -102 1
-167 -41 -86 -69 -94 -131 -36 -31 30 -48 61 -85 158 -26 66 -69 165 -96 220
-27 55 -49 108 -49 118 0 9 -9 26 -19 36 -18 18 -24 18 -67 7 -40 -10 -49 -17
-56 -42 -12 -40 -1 -107 29 -183 44 -112 187 -383 220 -419 l33 -35 127 8 c75
4 138 12 154 21 15 7 45 35 68 61 23 26 63 60 89 74 65 36 74 65 37 121 -16
24 -42 58 -57 76 -15 17 -35 56 -43 86 -9 30 -41 94 -72 143 -31 48 -76 122
-100 165 -33 59 -50 79 -75 87 -42 15 -116 13 -153 -3z"/>
<path d="M7526 9324 c-9 -8 -16 -27 -16 -41 0 -58 -76 -109 -192 -128 -44 -7
-95 -47 -100 -78 -2 -12 1 -33 6 -46 10 -23 12 -23 120 -19 121 5 136 13 136
73 0 53 49 86 131 87 31 0 47 -6 66 -24 28 -29 44 -84 32 -116 -10 -26 -64
-52 -107 -52 -15 0 -33 -5 -40 -12 -20 -20 -14 -67 13 -93 21 -22 33 -25 91
-25 68 0 179 -23 202 -43 24 -20 55 -91 55 -128 0 -44 -50 -121 -96 -150 -18
-11 -63 -29 -102 -40 -93 -28 -137 -52 -188 -100 -23 -22 -59 -49 -80 -60 -44
-23 -79 -73 -75 -109 3 -22 8 -25 40 -24 27 1 60 17 124 60 49 32 109 63 135
70 60 16 104 38 156 81 58 47 117 71 216 88 102 18 136 29 144 51 10 27 -17
95 -52 128 -40 36 -79 107 -95 168 -20 78 -32 97 -87 139 -30 24 -63 59 -74
80 -10 21 -34 50 -53 64 -18 14 -62 59 -95 99 -82 98 -175 141 -215 100z"/>
<path d="M5213 9315 c-13 -9 -23 -25 -23 -35 0 -18 30 -98 51 -133 5 -10 24
-60 41 -110 17 -51 34 -96 38 -102 4 -5 20 -39 34 -75 72 -174 82 -231 51
-304 -30 -71 -7 -76 138 -34 97 29 125 83 73 145 -35 42 -65 106 -72 155 -8
58 -31 113 -128 308 -59 120 -88 168 -106 177 -47 22 -74 24 -97 8z"/>
<path d="M4954 9171 c-33 -20 -36 -27 -49 -152 -9 -87 4 -127 65 -189 83 -85
90 -101 90 -206 0 -106 -6 -118 -84 -158 -54 -29 -107 -34 -125 -12 -9 10 -7
24 7 57 22 51 38 237 24 284 -7 26 -14 30 -43 31 -76 1 -75 1 -112 77 -19 40
-42 79 -50 85 -8 7 -44 19 -79 26 -54 11 -69 11 -103 -2 -51 -18 -82 -52 -93
-100 -14 -59 -7 -300 10 -352 8 -25 31 -69 52 -98 44 -64 81 -145 91 -201 4
-22 16 -52 26 -65 24 -30 88 -50 132 -41 45 10 104 45 122 71 35 54 182 117
348 148 87 17 121 32 161 74 l28 31 -38 10 c-22 6 -49 18 -62 26 -27 20 -62
85 -62 118 0 49 -32 145 -70 207 -50 83 -79 164 -94 265 -11 74 -14 80 -36 83
-14 1 -39 -6 -56 -17z m-259 -335 l35 -15 0 -68 c0 -81 -25 -229 -42 -250 -6
-8 -24 -21 -40 -29 -26 -13 -30 -13 -58 7 -35 26 -37 32 -55 134 -18 98 -18
132 -4 175 19 54 94 75 164 46z"/>
<path d="M8856 8993 c-14 -14 -3 -34 41 -77 33 -33 54 -46 75 -46 15 0 28 4
28 8 0 5 -19 29 -42 53 -43 44 -91 73 -102 62z"/>
<path d="M9253 8948 c-12 -13 -29 -42 -38 -66 -18 -44 -88 -102 -125 -102 -10
0 -21 -4 -24 -8 -10 -16 36 -93 64 -107 24 -13 29 -12 49 8 22 23 19 22 232
26 14 1 32 7 41 14 15 11 12 22 -32 110 -26 55 -58 110 -71 123 -28 30 -69 31
-96 2z"/>
<path d="M7238 8648 c-8 -7 -25 -31 -38 -53 -13 -22 -41 -61 -63 -88 -61 -73
-74 -120 -82 -293 -9 -192 2 -218 80 -182 39 18 52 53 60 158 9 117 20 151 72
220 83 110 115 204 81 238 -16 16 -90 15 -110 0z"/>
<path d="M6623 8460 c-23 -13 -35 -32 -44 -62 -23 -81 -4 -140 69 -215 63 -65
67 -76 67 -198 l0 -110 51 -3 c73 -4 88 13 81 92 -5 58 -47 207 -66 230 -12
15 -48 130 -62 195 -10 48 -37 91 -56 91 -5 0 -22 -9 -40 -20z"/>
<path d="M9283 8463 c-41 -3 -55 -9 -64 -25 -13 -23 -6 -83 12 -104 14 -17 55
-19 65 -3 15 24 90 49 152 49 73 0 81 15 31 61 -33 31 -46 32 -196 22z"/>
<path d="M6134 8141 c-35 -21 -74 -67 -74 -87 0 -7 -13 -29 -30 -47 -16 -19
-30 -39 -30 -44 0 -20 -42 -63 -61 -63 -11 0 -35 16 -53 35 -28 29 -40 35 -74
35 -36 0 -44 -4 -57 -30 -8 -16 -15 -36 -15 -45 0 -22 59 -55 98 -55 l32 0 0
-58 c0 -55 -2 -59 -51 -112 -28 -30 -60 -75 -71 -100 -25 -55 -35 -168 -19
-198 14 -27 51 -29 79 -4 23 19 92 146 92 167 0 8 11 25 25 39 29 29 75 45 75
27 0 -7 11 -23 25 -36 31 -32 75 -32 112 -1 32 28 27 38 -29 55 -20 7 -48 21
-62 32 -24 19 -26 26 -26 110 0 151 48 223 168 254 49 13 68 12 155 -7 54 -12
51 -1 52 -183 l0 -110 28 -3 c39 -5 111 40 127 78 7 17 22 37 32 45 20 13 19
14 -8 28 -16 8 -44 34 -63 57 -18 23 -54 54 -80 70 -25 16 -57 43 -69 59 -12
17 -45 49 -73 71 -58 46 -104 52 -155 21z"/>
<path d="M10091 8101 c-6 -10 -15 -49 -21 -86 -9 -57 -8 -73 5 -101 16 -34 22
-38 60 -35 76 6 83 22 56 122 -14 51 -28 81 -46 96 -32 28 -41 29 -54 4z"/>
<path d="M8612 8078 c2 -16 11 -24 29 -26 23 -3 26 0 22 22 -4 20 -11 26 -30
26 -20 0 -24 -4 -21 -22z"/>
<path d="M9525 7560 c-4 -6 7 -10 27 -9 27 0 30 2 13 9 -27 12 -33 12 -40 0z"/>
<path d="M9280 7410 c0 -18 4 -29 10 -25 6 3 10 15 10 25 0 10 -4 22 -10 25
-6 4 -10 -7 -10 -25z"/>
<path d="M5260 7121 c-5 -11 -10 -40 -10 -64 0 -58 23 -70 57 -30 29 36 36 59
29 89 -8 31 -60 34 -76 5z"/>
<path d="M5106 6815 c-8 -21 -8 -140 0 -148 8 -8 73 32 84 53 6 11 27 20 55
24 46 7 63 26 23 26 -12 0 -38 11 -58 25 -48 33 -95 42 -104 20z"/>
<path d="M5383 6762 c-28 -4 -21 -25 23 -72 18 -19 34 -46 37 -60 2 -15 5 -6
5 20 2 58 -32 117 -65 112z"/>
<path d="M5440 6502 c-5 -20 -10 -58 -10 -84 0 -29 -8 -63 -21 -88 -33 -62
-21 -99 44 -141 42 -28 59 -47 87 -104 51 -100 72 -130 96 -133 17 -2 24 6 37
49 31 93 17 168 -34 189 -17 7 -37 26 -45 41 -8 16 -25 44 -38 64 -21 30 -24
44 -20 88 4 42 1 60 -19 96 -13 25 -34 48 -45 52 -18 7 -23 3 -32 -29z"/>
<path d="M6111 6348 c0 -9 -19 -32 -41 -51 -45 -38 -51 -68 -18 -91 34 -24 67
-20 80 9 9 20 8 39 -4 88 -9 34 -16 54 -17 45z"/>
<path d="M5699 6280 c-24 -14 -12 -66 21 -90 16 -11 32 -20 38 -20 5 0 21 -10
36 -21 15 -12 30 -18 33 -15 4 4 9 33 11 65 4 52 2 60 -19 75 -25 17 -94 21
-120 6z"/>
<path d="M4997 6215 c9 -19 18 -33 21 -31 4 5 -26 66 -33 66 -3 0 3 -16 12
-35z"/>
<path d="M5120 5970 c0 -8 80 -164 89 -173 5 -5 25 3 46 17 21 14 42 26 47 26
21 0 98 62 98 79 0 9 -9 27 -21 40 -20 21 -27 22 -140 19 -65 -2 -119 -5 -119
-8z"/>
<path d="M12576 3616 c-8 -19 -22 -39 -33 -44 -26 -15 -7 -30 42 -34 36 -3 40
-6 43 -31 2 -16 -3 -36 -10 -45 -11 -13 -11 -14 1 -7 10 6 12 4 6 -4 -4 -8
-17 -10 -32 -6 -18 4 -24 2 -21 -7 3 -7 13 -13 24 -14 33 -2 64 -23 64 -44 0
-11 9 -25 20 -32 25 -16 27 -73 5 -106 -13 -18 -14 -29 -5 -62 7 -27 8 -52 1
-75 -12 -43 2 -252 18 -283 10 -18 9 -25 -4 -38 -8 -8 -15 -21 -15 -29 0 -7
-7 -16 -16 -19 -12 -4 -14 -14 -9 -37 10 -45 -3 -119 -21 -119 -8 0 -14 -6
-14 -14 0 -8 -21 -24 -47 -36 -27 -12 -71 -45 -100 -73 -64 -64 -79 -77 -92
-77 -6 0 -16 -9 -23 -20 -8 -12 -36 -27 -68 -37 -30 -8 -66 -23 -80 -32 -14
-9 -36 -22 -50 -29 -62 -32 -80 -68 -51 -103 13 -17 33 -23 82 -28 l64 -6 -1
-46 c0 -31 -7 -55 -22 -74 -12 -15 -22 -39 -22 -52 0 -14 -12 -36 -29 -51 -57
-53 -67 -58 -154 -77 -71 -16 -117 -46 -150 -101 -16 -26 -42 -51 -66 -64 -27
-13 -46 -32 -55 -54 -16 -39 -61 -74 -108 -82 -42 -8 -95 -40 -108 -65 -6 -10
-14 -18 -18 -18 -23 4 -44 -4 -69 -25 -23 -20 -25 -26 -14 -40 11 -13 9 -23
-11 -65 -27 -57 -50 -71 -105 -64 -39 5 -41 4 -94 -60 -30 -36 -67 -83 -83
-105 -24 -35 -35 -41 -79 -46 -31 -5 -54 -3 -60 3 -17 17 -67 13 -97 -9 -39
-28 -172 -77 -196 -73 -10 2 -37 7 -60 10 -40 5 -40 5 -52 -35 -7 -21 -12 -49
-12 -61 0 -12 -9 -47 -20 -78 -11 -31 -17 -59 -14 -62 10 -10 926 461 1239
638 691 391 1130 745 1220 983 15 40 16 56 6 115 -6 37 -15 112 -20 165 -5 53
-14 105 -20 116 -5 10 -15 50 -22 88 -6 38 -17 80 -24 94 -7 14 -16 40 -20 59
-4 18 -16 42 -26 52 -10 10 -19 30 -19 43 0 14 -5 28 -11 32 -6 3 -18 23 -26
42 l-15 37 -20 -24 c-16 -21 -23 -23 -46 -15 -21 7 -28 17 -30 42 -4 38 3 40
27 10 11 -13 24 -19 34 -15 13 5 15 16 10 59 -3 30 -14 62 -24 73 -9 11 -21
33 -25 48 -3 16 -13 31 -20 34 -7 3 -16 21 -20 41 -4 21 -15 48 -25 61 -11 13
-19 30 -19 38 0 7 -7 16 -15 19 -8 4 -18 24 -21 45 -8 49 -29 51 -48 5z"/>
<path d="M12644 3332 c3 -6 0 -13 -6 -15 -10 -4 -10 -8 2 -16 8 -5 17 -8 21
-5 11 7 4 37 -11 42 -7 3 -10 0 -6 -6z"/>
<path d="M7474 1446 c-11 -28 15 -88 127 -294 385 -710 611 -1027 796 -1115
64 -30 74 -32 178 -32 90 1 134 7 240 33 264 66 512 147 775 252 158 63 431
184 495 218 l40 22 -110 -6 c-79 -4 -155 -17 -270 -46 -88 -22 -191 -46 -230
-54 -80 -16 -180 -49 -210 -69 -12 -7 -46 -18 -76 -24 -52 -11 -137 -39 -184
-61 -20 -9 -90 -29 -199 -56 -64 -16 -107 -15 -113 2 -2 6 11 17 29 25 18 7
56 27 83 45 28 17 82 48 120 68 134 71 224 123 273 160 27 20 54 36 59 36 5 0
15 11 21 24 11 24 9 26 -46 46 -73 28 -120 23 -317 -32 -149 -41 -151 -41
-310 -40 -143 2 -161 0 -180 -17 -34 -31 -112 -14 -222 51 -51 29 -93 57 -93
61 0 25 -34 76 -56 86 -41 18 -74 14 -74 -9 0 -11 5 -20 10 -20 6 0 10 -7 10
-15 0 -8 -7 -15 -15 -15 -8 0 -15 6 -15 14 0 9 -7 12 -20 9 -11 -3 -20 0 -20
6 0 6 -7 11 -15 11 -8 0 -15 4 -15 9 0 14 -58 69 -80 76 -19 6 -38 64 -26 83
3 5 -8 24 -24 42 -35 39 -36 47 -13 72 15 17 15 20 -3 41 -29 34 -44 64 -44
90 0 22 -31 57 -50 57 -6 0 -10 7 -10 16 0 14 -17 33 -81 90 -9 8 -19 28 -22
43 -6 28 -67 109 -93 124 -9 5 -16 3 -20 -7z"/>
<path d="M10941 1144 c0 -11 3 -14 6 -6 3 7 2 16 -1 19 -3 4 -6 -2 -5 -13z"/>
<path d="M7908 843 c7 -3 16 -2 19 1 4 3 -2 6 -13 5 -11 0 -14 -3 -6 -6z"/>
<path d="M7980 800 c0 -11 5 -20 10 -20 6 0 10 9 10 20 0 11 -4 20 -10 20 -5
0 -10 -9 -10 -20z"/>
<path d="M10230 600 c0 -5 7 -10 15 -10 8 0 15 5 15 10 0 6 -7 10 -15 10 -8 0
-15 -4 -15 -10z"/>
</g>
</svg>
